<svg id="Layer_1" data-name="Layer 1"
    xmlns="http://www.w3.org/2000/svg" viewBox="0 0 646 191.41">
    <defs>
        <clipPath id="clip-path">
            <path class="cls-1" d="M0 0h646v191.41H0z"/>
        </clipPath>
        <clipPath id="clip-path-2">
            <path class="cls-1" d="M0 0h646v191.41H0z"/>
        </clipPath>
        <style>
      .cls-1{fill:none}.cls-5{fill:#fff}
        </style>
    </defs>
    <g style="clip-path:url(#clip-path)">
        <g style="clip-path:url(#clip-path-2)">
            <path d="M622.07 191.41H23.93A24 24 0 0 1 0 167.48V23.93A24 24 0 0 1 23.93 0h598.14A24 24 0 0 1 646 23.93v143.55a24 24 0 0 1-23.93 23.93"/>
            <path d="M622.07 3.83a20.11 20.11 0 0 1 20.1 20.1v143.55a20.12 20.12 0 0 1-20.1 20.1H23.93a20.12 20.12 0 0 1-20.1-20.1V23.93a20.11 20.11 0 0 1 20.1-20.1Zm0-3.83H23.93A24 24 0 0 0 0 23.93v143.55a24 24 0 0 0 23.93 23.93h598.14A24 24 0 0 0 646 167.48V23.93A24 24 0 0 0 622.07 0" style="fill:#a6a5a5"/>
            <path class="cls-5" d="M326 104.08a20.36 20.36 0 1 0 20.43 20.36A20.06 20.06 0 0 0 326 104.08m0 32.69c-6.16 0-11.49-5.09-11.49-12.33s5.37-12.34 11.49-12.34 11.49 5 11.49 12.34-5.32 12.33-11.49 12.33m-44.57-32.69a20.36 20.36 0 1 0 20.44 20.36 20.06 20.06 0 0 0-20.44-20.36m0 32.69c-6.16 0-11.48-5.09-11.48-12.33s5.32-12.34 11.48-12.34 11.49 5 11.49 12.34-5.32 12.33-11.49 12.33m-53-26.44V119h20.66c-.62 4.85-2.23 8.4-4.7 10.86-3 3-7.71 6.32-16 6.32a23 23 0 0 1 0-45.94A22 22 0 0 1 244 96.37l6.1-6.08a30.12 30.12 0 0 0-21.67-8.72c-17.42 0-32.07 14.19-32.07 31.61s14.65 31.61 32.07 31.61c9.41 0 16.5-3.09 22-8.87 5.7-5.7 7.48-13.72 7.48-20.19a27.21 27.21 0 0 0-.47-5.4ZM445.27 117c-1.7-4.55-6.86-13-17.42-13s-19.2 8.25-19.2 20.36a19.92 19.92 0 0 0 20.2 20.35 20.24 20.24 0 0 0 17-9l-6.94-4.63c-2.31 3.4-5.47 5.63-10 5.63a10.36 10.36 0 0 1-9.87-6.16l27.21-11.26Zm-27.75 6.78A11.16 11.16 0 0 1 428.15 112c3.56 0 6.56 1.77 7.56 4.32Zm-22.13 19.74h8.94V83.73h-8.94Zm-14.65-34.93h-.3a14.15 14.15 0 0 0-10.72-4.55c-10.18 0-19.5 9-19.5 20.44s9.32 20.27 19.5 20.27a13.88 13.88 0 0 0 10.72-4.63h.3v2.93c0 7.79-4.16 11.95-10.86 11.95-5.48 0-8.87-3.93-10.26-7.24l-7.78 3.24a19.39 19.39 0 0 0 18 12c10.48 0 19.35-6.17 19.35-21.2v-36.48h-8.49Zm-10.25 28.14c-6.17 0-11.33-5.16-11.33-12.25s5.16-12.42 11.33-12.42 10.87 5.25 10.87 12.42-4.78 12.25-10.87 12.25m116.67-53h-21.39v59.82h8.92v-22.66h12.47c9.9 0 19.62-7.16 19.62-18.58s-9.72-18.57-19.62-18.57m.23 28.83h-12.7V92.06h12.7a10.26 10.26 0 1 1 0 20.51m55.18-8.57c-6.46 0-13.16 2.85-15.93 9.15l7.93 3.31c1.69-3.31 4.84-4.38 8.16-4.38 4.61 0 9.31 2.77 9.38 7.69v.62a19.65 19.65 0 0 0-9.31-2.31c-8.54 0-17.24 4.7-17.24 13.47 0 8 7 13.16 14.85 13.16 6 0 9.32-2.69 11.4-5.85h.3v4.62h8.62v-22.96c0-10.62-7.92-16.54-18.16-16.54m-1.07 32.78c-2.93 0-7-1.46-7-5.08 0-4.62 5.08-6.38 9.47-6.38a15.82 15.82 0 0 1 8.15 2 10.81 10.81 0 0 1-10.61 9.46m50.63-31.48-10.24 25.94h-.31L571 105.28h-9.62l15.93 36.25-9.11 20.17h9.31l24.55-56.42Zm-80.42 38.28h8.93V83.74h-8.93Z"/>
            <path d="m99.14 93-50.95 54a13.76 13.76 0 0 0 20.27 8.3l.16-.09L126 122.17Z" style="fill:#ea4435"/>
            <path d="M150.68 83.74h-.05l-24.76-14.38L98 94.18l28 28L150.6 108a13.78 13.78 0 0 0 .08-24.21" style="fill:#f9bc15"/>
            <path d="M48.19 44.39a13.38 13.38 0 0 0-.47 3.54v95.55a13.27 13.27 0 0 0 .47 3.54l52.7-52.69Z" style="fill:#547dbf"/>
            <path d="m99.51 95.71 26.37-26.36L68.6 36.14a13.78 13.78 0 0 0-20.41 8.24Z" style="fill:#33a851"/>
        </g>
        <path class="cls-5" d="M206.28 62.85V37.69h-9v-5.12h24.06v5.12h-9v25.16ZM250.24 62.85h-6.65L241 56h-12.1l-2.5 6.88h-6.49L231.7 32.6h6.47ZM239 50.87l-4.17-11.24-4.09 11.24ZM235.25 29c.73-.18 1.1-.5 1.11-.95s-.17-.59-.57-.81a6 6 0 0 0-2.75-.48c-.43 0-1.07 0-1.94.09l-.23-2.11a16.28 16.28 0 0 1 3-.14 9.55 9.55 0 0 1 4.16.82 2.75 2.75 0 0 1 1.81 2.42c.06 1.43-1.19 2.31-3.75 2.62v1h-2.32v-2.28a9.92 9.92 0 0 0 1.48-.18ZM254.11 62.85V32.57h6.11v30.28ZM284.61 62.85V37.69h-9v-5.12h24.06v5.12h-9v25.16ZM304 62.85V32.57h12.87a21.84 21.84 0 0 1 7.05.82 6.92 6.92 0 0 1 3.52 2.9 8.73 8.73 0 0 1 1.32 4.77 8.07 8.07 0 0 1-2 5.63 9.65 9.65 0 0 1-6 2.8A14.31 14.31 0 0 1 324 52a34.58 34.58 0 0 1 3.48 4.91l3.7 5.91h-7.31l-4.42-6.59a42.78 42.78 0 0 0-3.22-4.45 4.75 4.75 0 0 0-1.84-1.26 10 10 0 0 0-3.08-.34h-1.24v12.67Zm6.11-17.47h4.53a23 23 0 0 0 5.49-.38 3.21 3.21 0 0 0 1.71-1.28 3.87 3.87 0 0 0 .62-2.27 3.66 3.66 0 0 0-.81-2.47 3.76 3.76 0 0 0-2.31-1.18c-.49-.07-2-.11-4.46-.11h-4.77ZM335.2 62.85V32.57h22.46v5.12h-16.34v6.72h15.2v5.1h-15.2v8.24h16.91v5.1Zm3.89-32 4.33-6.1h5.37l4.28 6.1h-4.67l-2.4-3.09-2.24 3.08ZM364 62.85V32.57h5.95l12.39 20.22V32.57H388v30.28h-6.13l-12.2-19.75v19.75Z"/>
    </g>
</svg>
